<mxfile host="Electron" modified="2023-09-13T10:01:08.471Z" agent="Mozilla/5.0 (Macintosh; Intel Mac OS X 10_15_7) AppleWebKit/537.36 (KHTML, like Gecko) draw.io/21.6.8 Chrome/114.0.5735.289 Electron/25.5.0 Safari/537.36" etag="fvsPTOEhvP7cgY_nnKjX" version="21.6.8" type="device">
  <diagram name="Page-1" id="AK6eOR6PjwH6tgFoe_t4">
    <mxGraphModel dx="1434" dy="907" grid="1" gridSize="10" guides="1" tooltips="1" connect="1" arrows="1" fold="1" page="1" pageScale="1" pageWidth="827" pageHeight="1169" math="0" shadow="0">
      <root>
        <mxCell id="0" />
        <mxCell id="1" parent="0" />
        <mxCell id="P52KZmhjphjqDDkN-I9k-1" value="" style="ellipse;html=1;shape=startState;fillColor=#000000;strokeColor=#ff0000;" vertex="1" parent="1">
          <mxGeometry x="384" y="10" width="30" height="30" as="geometry" />
        </mxCell>
        <mxCell id="P52KZmhjphjqDDkN-I9k-2" value="" style="edgeStyle=orthogonalEdgeStyle;html=1;verticalAlign=bottom;endArrow=open;endSize=8;strokeColor=#ff0000;rounded=0;" edge="1" source="P52KZmhjphjqDDkN-I9k-1" parent="1">
          <mxGeometry relative="1" as="geometry">
            <mxPoint x="399" y="100" as="targetPoint" />
          </mxGeometry>
        </mxCell>
        <mxCell id="P52KZmhjphjqDDkN-I9k-5" value="" style="edgeStyle=orthogonalEdgeStyle;rounded=0;orthogonalLoop=1;jettySize=auto;html=1;" edge="1" parent="1" source="P52KZmhjphjqDDkN-I9k-3" target="P52KZmhjphjqDDkN-I9k-4">
          <mxGeometry relative="1" as="geometry" />
        </mxCell>
        <mxCell id="P52KZmhjphjqDDkN-I9k-3" value="Der trykkes &quot;3&quot;&lt;br&gt;(Find superhero)" style="rounded=1;whiteSpace=wrap;html=1;" vertex="1" parent="1">
          <mxGeometry x="339" y="220" width="120" height="60" as="geometry" />
        </mxCell>
        <mxCell id="P52KZmhjphjqDDkN-I9k-7" style="edgeStyle=orthogonalEdgeStyle;rounded=0;orthogonalLoop=1;jettySize=auto;html=1;entryX=0.5;entryY=0;entryDx=0;entryDy=0;" edge="1" parent="1" source="P52KZmhjphjqDDkN-I9k-4" target="P52KZmhjphjqDDkN-I9k-6">
          <mxGeometry relative="1" as="geometry" />
        </mxCell>
        <mxCell id="P52KZmhjphjqDDkN-I9k-4" value="SÃ¸g efter navn" style="whiteSpace=wrap;html=1;rounded=1;" vertex="1" parent="1">
          <mxGeometry x="339" y="360" width="120" height="60" as="geometry" />
        </mxCell>
        <mxCell id="P52KZmhjphjqDDkN-I9k-9" value="" style="edgeStyle=orthogonalEdgeStyle;rounded=0;orthogonalLoop=1;jettySize=auto;html=1;" edge="1" parent="1" source="P52KZmhjphjqDDkN-I9k-6" target="P52KZmhjphjqDDkN-I9k-8">
          <mxGeometry relative="1" as="geometry" />
        </mxCell>
        <mxCell id="P52KZmhjphjqDDkN-I9k-11" value="" style="edgeStyle=orthogonalEdgeStyle;rounded=0;orthogonalLoop=1;jettySize=auto;html=1;" edge="1" parent="1" source="P52KZmhjphjqDDkN-I9k-6" target="P52KZmhjphjqDDkN-I9k-10">
          <mxGeometry relative="1" as="geometry" />
        </mxCell>
        <mxCell id="P52KZmhjphjqDDkN-I9k-6" value="" style="rhombus;whiteSpace=wrap;html=1;" vertex="1" parent="1">
          <mxGeometry x="359" y="520" width="80" height="80" as="geometry" />
        </mxCell>
        <mxCell id="P52KZmhjphjqDDkN-I9k-8" value="&lt;br&gt;udskriv &quot;ikke fundet&quot;" style="whiteSpace=wrap;html=1;" vertex="1" parent="1">
          <mxGeometry x="510" y="530" width="120" height="60" as="geometry" />
        </mxCell>
        <mxCell id="P52KZmhjphjqDDkN-I9k-10" value="Viser resultat" style="whiteSpace=wrap;html=1;" vertex="1" parent="1">
          <mxGeometry x="160" y="530" width="120" height="60" as="geometry" />
        </mxCell>
        <mxCell id="P52KZmhjphjqDDkN-I9k-15" value="" style="edgeStyle=orthogonalEdgeStyle;rounded=0;orthogonalLoop=1;jettySize=auto;html=1;" edge="1" parent="1" source="P52KZmhjphjqDDkN-I9k-14" target="P52KZmhjphjqDDkN-I9k-3">
          <mxGeometry relative="1" as="geometry" />
        </mxCell>
        <mxCell id="P52KZmhjphjqDDkN-I9k-14" value="Menu" style="html=1;whiteSpace=wrap;" vertex="1" parent="1">
          <mxGeometry x="344" y="110" width="110" height="50" as="geometry" />
        </mxCell>
        <mxCell id="P52KZmhjphjqDDkN-I9k-17" value="&lt;span style=&quot;color: rgb(0, 0, 0); font-family: Helvetica; font-size: 12px; font-style: normal; font-variant-ligatures: normal; font-variant-caps: normal; font-weight: 400; letter-spacing: normal; orphans: 2; text-align: center; text-indent: 0px; text-transform: none; widows: 2; word-spacing: 0px; -webkit-text-stroke-width: 0px; background-color: rgb(251, 251, 251); text-decoration-thickness: initial; text-decoration-style: initial; text-decoration-color: initial; float: none; display: inline !important;&quot;&gt;Findes&lt;/span&gt;" style="text;whiteSpace=wrap;html=1;" vertex="1" parent="1">
          <mxGeometry x="300" y="530" width="70" height="40" as="geometry" />
        </mxCell>
        <mxCell id="P52KZmhjphjqDDkN-I9k-18" value="&lt;span style=&quot;color: rgb(0, 0, 0); font-family: Helvetica; font-size: 12px; font-style: normal; font-variant-ligatures: normal; font-variant-caps: normal; font-weight: 400; letter-spacing: normal; orphans: 2; text-align: center; text-indent: 0px; text-transform: none; widows: 2; word-spacing: 0px; -webkit-text-stroke-width: 0px; background-color: rgb(251, 251, 251); text-decoration-thickness: initial; text-decoration-style: initial; text-decoration-color: initial; float: none; display: inline !important;&quot;&gt;Findes ikke&lt;/span&gt;" style="text;whiteSpace=wrap;html=1;" vertex="1" parent="1">
          <mxGeometry x="439" y="530" width="90" height="40" as="geometry" />
        </mxCell>
        <mxCell id="P52KZmhjphjqDDkN-I9k-19" value="" style="edgeStyle=segmentEdgeStyle;endArrow=classic;html=1;curved=0;rounded=0;endSize=8;startSize=8;exitX=0.5;exitY=1;exitDx=0;exitDy=0;" edge="1" parent="1" source="P52KZmhjphjqDDkN-I9k-8">
          <mxGeometry width="50" height="50" relative="1" as="geometry">
            <mxPoint x="490" y="700" as="sourcePoint" />
            <mxPoint x="570" y="650" as="targetPoint" />
            <Array as="points">
              <mxPoint x="570" y="650" />
            </Array>
          </mxGeometry>
        </mxCell>
        <mxCell id="P52KZmhjphjqDDkN-I9k-20" value="" style="edgeStyle=segmentEdgeStyle;endArrow=classic;html=1;curved=0;rounded=0;endSize=8;startSize=8;exitX=0.5;exitY=1;exitDx=0;exitDy=0;" edge="1" parent="1">
          <mxGeometry width="50" height="50" relative="1" as="geometry">
            <mxPoint x="219.5" y="590" as="sourcePoint" />
            <mxPoint x="460" y="140" as="targetPoint" />
            <Array as="points">
              <mxPoint x="220" y="650" />
              <mxPoint x="730" y="650" />
              <mxPoint x="730" y="140" />
              <mxPoint x="490" y="140" />
            </Array>
          </mxGeometry>
        </mxCell>
      </root>
    </mxGraphModel>
  </diagram>
</mxfile>
